<svg id="Capa_1" enable-background="new 0 0 512 512" height="512" viewBox="0 0 512 512" width="512" xmlns="http://www.w3.org/2000/svg"><g><path d="m256 512 64-256-64-256h-251.619c-2.419 0-4.381 1.962-4.381 4.381v503.237c0 2.42 1.962 4.382 4.381 4.382z" fill="#407093"/><path d="m0 491.396v16.222c0 2.42 1.962 4.382 4.381 4.382h251.619l24.215-20.604z" fill="#365e7d"/><path d="m256 128c-35.447 0-67.528 14.409-90.706 37.689-6.482 6.51-.225 17.468 8.623 14.998 6.702-1.871 13.768-2.871 21.067-2.871 24.679 0 46.687 11.434 61.016 29.294l24.215-43.644z" fill="#ffe07d"/><path d="m256 304.891c-14.329 17.86-36.337 29.294-61.016 29.294-7.299 0-14.365-1-21.067-2.871-8.848-2.47-15.104 8.488-8.623 14.998 23.178 23.279 55.259 37.688 90.706 37.688l24.215-39.555z" fill="#ffe07d"/><path d="m256 512v-512h251.619c2.419 0 4.381 1.962 4.381 4.381v503.237c0 2.42-1.962 4.381-4.381 4.381h-251.619z" fill="#90d8f9"/><path d="m507.619 0h-36.826v394.656c0 53.428-43.312 96.741-96.741 96.741h-118.052v20.603h251.619c2.42 0 4.381-1.962 4.381-4.381v-503.238c0-2.419-1.962-4.381-4.381-4.381z" fill="#75cef9"/><path d="m384 256c0-70.692-57.308-128-128-128v256c70.692 0 128-57.308 128-128z" fill="#ffc250"/><path d="m414.103 256c0-7.691 6.235-13.926 13.926-13.926h34.105c7.691 0 13.926 6.235 13.926 13.926 0 7.691-6.235 13.926-13.926 13.926h-34.105c-7.692 0-13.926-6.235-13.926-13.926z" fill="#ffe07d"/><path d="m470.793 245.094v21.812c3.209-2.551 5.266-6.488 5.266-10.906s-2.058-8.355-5.266-10.906z" fill="#ffd064"/><g fill="#ffe07d"><path d="m392.921 176.949c-3.845-6.661-1.563-15.177 5.097-19.023l29.536-17.052c6.661-3.845 15.177-1.563 19.023 5.097 3.845 6.661 1.563 15.177-5.097 19.023l-29.536 17.052c-6.661 3.845-15.178 1.563-19.023-5.097z"/><path d="m335.051 119.079c-6.661-3.845-8.943-12.362-5.097-19.023l17.052-29.536c3.845-6.661 12.362-8.943 19.023-5.097 6.661 3.845 8.943 12.362 5.097 19.023l-17.052 29.536c-3.845 6.661-12.362 8.943-19.023 5.097z"/><path d="m392.921 335.051c-3.845 6.661-1.563 15.177 5.097 19.023l29.536 17.052c6.661 3.845 15.177 1.563 19.023-5.097 3.845-6.661 1.563-15.177-5.097-19.023l-29.536-17.052c-6.661-3.845-15.178-1.563-19.023 5.097z"/><path d="m335.051 392.921c-6.661 3.845-8.943 12.362-5.097 19.023l17.052 29.536c3.845 6.661 12.362 8.943 19.023 5.097 6.661-3.845 8.943-12.362 5.097-19.023l-17.052-29.536c-3.845-6.661-12.362-8.943-19.023-5.097z"/></g><circle cx="157.697" cy="66.604" fill="#fff6cf" r="15.396"/><circle cx="96.058" cy="347.887" fill="#fff6cf" r="14.575"/><circle cx="57.991" cy="166.956" fill="#fff6cf" r="19.262"/><circle cx="162.042" cy="443.669" fill="#fff6cf" r="19.107"/></g></svg>